<svg xmlns="http://www.w3.org/2000/svg" width="40" height="40" viewBox="0 0 256 257" fill="none">
  <circle cx="128" cy="128.5" r="120" fill="#00D8FF"/>
  <path d="M185.714 128.5C185.714 159.089 163.516 184.071 133.129 184.071H128H122.871C92.484 184.071 70.2857 159.089 70.2857 128.5C70.2857 97.9107 92.484 72.9286 122.871 72.9286H128H133.129C163.516 72.9286 185.714 97.9107 185.714 128.5Z" fill="white"/>
  <path d="M185.714 128.5C185.714 159.089 163.516 184.071 133.129 184.071H128H122.871C92.484 184.071 70.2857 159.089 70.2857 128.5C70.2857 97.9107 92.484 72.9286 122.871 72.9286H128H133.129C163.516 72.9286 185.714 97.9107 185.714 128.5Z" fill="#00D8FF" fill-opacity="0.2"/>
  <path d="M185.714 128.5C185.714 159.089 163.516 184.071 133.129 184.071H128H122.871C92.484 184.071 70.2857 159.089 70.2857 128.5C70.2857 97.9107 92.484 72.9286 122.871 72.9286H128H133.129C163.516 72.9286 185.714 97.9107 185.714 128.5Z" fill="url(#paint0_linear_1_1)" fill-opacity="0.2"/>
  <defs>
    <linearGradient id="paint0_linear_1_1" x1="128" y1="72.9286" x2="128" y2="184.071" gradientUnits="userSpaceOnUse">
      <stop stop-color="white" stop-opacity="0.4"/>
      <stop offset="1" stop-color="white" stop-opacity="0"/>
    </linearGradient>
  </defs>
</svg>
